<svg id="Layer_1" data-name="Layer 1" xmlns="http://www.w3.org/2000/svg" viewBox="0 0 580.69 27.56"><defs><style>.cls-1{fill:#221f1f;}</style></defs><path class="cls-1" d="M0,.93H10.4V4.82H4v3.8H10.4v3.83H4v9.43H0Z"/><path class="cls-1" d="M15,0a2.37,2.37,0,0,1,1.75.74,2.45,2.45,0,0,1,.74,1.8,2.45,2.45,0,0,1-.73,1.77A2.34,2.34,0,0,1,15.07,5,2.42,2.42,0,0,1,13.3,4.3a2.5,2.5,0,0,1-.73-1.82A2.39,2.39,0,0,1,13.29.73,2.36,2.36,0,0,1,15,0ZM13.09,6.38H17v15.5H13.09Z"/><path class="cls-1" d="M20.09.4H24V21.88H20.09Z"/><path class="cls-1" d="M43,15.26H30.55A4.17,4.17,0,0,0,32,17.89a4.56,4.56,0,0,0,3,1,5.15,5.15,0,0,0,3.75-1.52L42,18.88a7.79,7.79,0,0,1-2.94,2.57,9.25,9.25,0,0,1-4.06.83A8,8,0,0,1,29.08,20a7.81,7.81,0,0,1-2.29-5.76,8.09,8.09,0,0,1,2.28-5.89A7.68,7.68,0,0,1,34.81,6a7.93,7.93,0,0,1,5.95,2.35,8.46,8.46,0,0,1,2.3,6.19ZM39.15,12.2a3.83,3.83,0,0,0-1.52-2.11A4.39,4.39,0,0,0,35,9.28a4.62,4.62,0,0,0-2.85.91,5,5,0,0,0-1.43,2Z"/><path class="cls-1" d="M61.18.93h4l8.06,21H69.14L67.5,17.57H59l-1.71,4.31H53.1Zm2,5.55-2.82,7.2H66Z"/><path class="cls-1" d="M75.94,6.38h3.89V8a9.31,9.31,0,0,1,2.4-1.55A5.8,5.8,0,0,1,84.43,6a5.34,5.34,0,0,1,3.91,1.61,5.55,5.55,0,0,1,1.35,4.05V21.88H85.84V15.1a17.86,17.86,0,0,0-.24-3.69A2.57,2.57,0,0,0,84.73,10a2.47,2.47,0,0,0-1.53-.47,2.82,2.82,0,0,0-2,.79A4.15,4.15,0,0,0,80,12.52a18.08,18.08,0,0,0-.17,3.15v6.21H75.94Z"/><path class="cls-1" d="M104.89,6.38h3.89v15.5h-3.89V20.25a7.74,7.74,0,0,1-2.28,1.56,6.52,6.52,0,0,1-2.48.47A6.87,6.87,0,0,1,94.93,20a8.12,8.12,0,0,1-2.19-5.79,8.34,8.34,0,0,1,2.12-5.88A6.75,6.75,0,0,1,100,6a6.56,6.56,0,0,1,2.62.53,7.08,7.08,0,0,1,2.26,1.58ZM100.8,9.57a3.92,3.92,0,0,0-3,1.28,4.57,4.57,0,0,0-1.19,3.27,4.66,4.66,0,0,0,1.21,3.31,4,4,0,0,0,3,1.29,4,4,0,0,0,3-1.27,4.69,4.69,0,0,0,1.2-3.34,4.54,4.54,0,0,0-1.2-3.28A4.06,4.06,0,0,0,100.8,9.57Z"/><path class="cls-1" d="M112.29.4h3.89V21.88h-3.89Z"/><path class="cls-1" d="M118,6.38h4l4,9.73,4.45-9.73h4l-9.71,21.18h-4l3.19-6.83Z"/><path class="cls-1" d="M146.13,8.55,143.72,11a4.09,4.09,0,0,0-2.66-1.46,1.73,1.73,0,0,0-1,.28.84.84,0,0,0-.37.69.89.89,0,0,0,.23.58,4.86,4.86,0,0,0,1.17.72l1.42.71a8.38,8.38,0,0,1,3.09,2.27,4.47,4.47,0,0,1,.84,2.7,4.47,4.47,0,0,1-1.51,3.45,5.83,5.83,0,0,1-4.07,1.38,6.47,6.47,0,0,1-5.42-2.65l2.4-2.6a5.55,5.55,0,0,0,1.6,1.29,3.64,3.64,0,0,0,1.63.49,2,2,0,0,0,1.24-.37,1.1,1.1,0,0,0,.47-.86c0-.6-.56-1.18-1.69-1.75l-1.32-.66c-2.5-1.26-3.76-2.84-3.76-4.74a4.13,4.13,0,0,1,1.42-3.14A5.17,5.17,0,0,1,141,6a6.34,6.34,0,0,1,2.84.67A6.24,6.24,0,0,1,146.13,8.55Z"/><path class="cls-1" d="M151,0a2.4,2.4,0,0,1,1.76.74,2.44,2.44,0,0,1,.73,1.8,2.41,2.41,0,0,1-.73,1.77A2.34,2.34,0,0,1,151,5a2.42,2.42,0,0,1-1.77-.74,2.55,2.55,0,0,1-.73-1.82,2.36,2.36,0,0,1,.73-1.75A2.34,2.34,0,0,1,151,0Zm-1.94,6.38h3.89v15.5h-3.89Z"/><path class="cls-1" d="M166,8.55,163.55,11a4.07,4.07,0,0,0-2.66-1.46,1.73,1.73,0,0,0-1,.28.87.87,0,0,0-.37.69.85.85,0,0,0,.24.58,4.52,4.52,0,0,0,1.16.72l1.42.71a8.43,8.43,0,0,1,3.1,2.27,4.47,4.47,0,0,1,.84,2.7,4.48,4.48,0,0,1-1.52,3.45,5.82,5.82,0,0,1-4.07,1.38,6.45,6.45,0,0,1-5.41-2.65l2.39-2.6a5.68,5.68,0,0,0,1.6,1.29,3.68,3.68,0,0,0,1.63.49,2,2,0,0,0,1.24-.37,1.07,1.07,0,0,0,.47-.86c0-.6-.56-1.18-1.69-1.75l-1.31-.66q-3.77-1.89-3.76-4.74a4.12,4.12,0,0,1,1.41-3.14A5.17,5.17,0,0,1,160.86,6,6.34,6.34,0,0,1,166,8.55Z"/><path class="cls-1" d="M188.91,6.38h3.89v15.5h-3.89V20.25a7.61,7.61,0,0,1-2.28,1.56,6.52,6.52,0,0,1-2.48.47A6.89,6.89,0,0,1,179,20a8.12,8.12,0,0,1-2.19-5.79,8.34,8.34,0,0,1,2.12-5.88A6.75,6.75,0,0,1,184,6a6.56,6.56,0,0,1,2.62.53,7.08,7.08,0,0,1,2.26,1.58Zm-4.08,3.19a3.92,3.92,0,0,0-3,1.28,4.57,4.57,0,0,0-1.19,3.27,4.66,4.66,0,0,0,1.21,3.31,4,4,0,0,0,3,1.29,4,4,0,0,0,3-1.27,4.69,4.69,0,0,0,1.21-3.34,4.54,4.54,0,0,0-1.21-3.28A4.05,4.05,0,0,0,184.83,9.57Z"/><path class="cls-1" d="M196.74,6.38h3.89V8A9.44,9.44,0,0,1,203,6.42a5.83,5.83,0,0,1,2.2-.44,5.32,5.32,0,0,1,3.91,1.61,5.51,5.51,0,0,1,1.36,4.05V21.88h-3.85V15.1a16.93,16.93,0,0,0-.25-3.69,2.51,2.51,0,0,0-.87-1.39A2.47,2.47,0,0,0,204,9.55a2.84,2.84,0,0,0-2,.79,4.21,4.21,0,0,0-1.17,2.18,17.09,17.09,0,0,0-.17,3.15v6.21h-3.89Z"/><path class="cls-1" d="M225.69.4h3.89V21.88h-3.89V20.25a7.65,7.65,0,0,1-2.29,1.56,6.52,6.52,0,0,1-2.48.47A6.87,6.87,0,0,1,215.73,20a8.12,8.12,0,0,1-2.19-5.79,8.3,8.3,0,0,1,2.12-5.88A6.75,6.75,0,0,1,220.81,6a6.6,6.6,0,0,1,2.62.53,7.19,7.19,0,0,1,2.26,1.58ZM221.6,9.57a4,4,0,0,0-3,1.28,4.62,4.62,0,0,0-1.19,3.27,4.7,4.7,0,0,0,1.21,3.31,4,4,0,0,0,3,1.29,4,4,0,0,0,3-1.27,4.65,4.65,0,0,0,1.21-3.34,4.5,4.5,0,0,0-1.21-3.28A4,4,0,0,0,221.6,9.57Z"/><path class="cls-1" d="M261.37,4.61l-2.79,2.66a8.64,8.64,0,0,0-6.41-3,7,7,0,0,0-7.12,7.12A7.59,7.59,0,0,0,246,15.1a6.59,6.59,0,0,0,2.58,2.55,7.45,7.45,0,0,0,3.7.93,7.69,7.69,0,0,0,3.18-.65,11.49,11.49,0,0,0,3.16-2.36l2.7,2.82a14.76,14.76,0,0,1-4.39,3.14,11.88,11.88,0,0,1-4.71.88,10.83,10.83,0,0,1-8-3.1,10.7,10.7,0,0,1-3.12-7.94,10.91,10.91,0,0,1,1.42-5.57,10.5,10.5,0,0,1,4.06-3.92A11.42,11.42,0,0,1,252.23.4a11.92,11.92,0,0,1,5,1.09A12.05,12.05,0,0,1,261.37,4.61Z"/><path class="cls-1" d="M271.71,6a8.2,8.2,0,0,1,4.12,1.1,7.93,7.93,0,0,1,3,3,8,8,0,0,1,1.08,4.06,8.09,8.09,0,0,1-1.09,4.1,7.9,7.9,0,0,1-3,3,8.28,8.28,0,0,1-4.15,1.07A7.73,7.73,0,0,1,266,19.91a7.87,7.87,0,0,1-2.36-5.76,7.86,7.86,0,0,1,2.67-6.06A7.82,7.82,0,0,1,271.71,6Zm.06,3.67a4,4,0,0,0-3,1.26,4.47,4.47,0,0,0-1.2,3.22,4.57,4.57,0,0,0,1.19,3.28,4,4,0,0,0,3,1.25,4,4,0,0,0,3-1.26A4.54,4.54,0,0,0,276,14.13a4.47,4.47,0,0,0-1.19-3.24A4,4,0,0,0,271.77,9.65Z"/><path class="cls-1" d="M283.11,6.38H287V8a9.44,9.44,0,0,1,2.39-1.55,5.83,5.83,0,0,1,2.2-.44,5.36,5.36,0,0,1,3.92,1.61,5.55,5.55,0,0,1,1.35,4.05V21.88H293V15.1a16.93,16.93,0,0,0-.25-3.69,2.3,2.3,0,0,0-2.39-1.86,2.85,2.85,0,0,0-2,.79,4.21,4.21,0,0,0-1.17,2.18,18.08,18.08,0,0,0-.17,3.15v6.21h-3.89Z"/><path class="cls-1" d="M301.09.67H305V6.38h2.31V9.73H305V21.88h-3.89V9.73h-2V6.38h2Z"/><path class="cls-1" d="M324.9,15.26H312.4a4.14,4.14,0,0,0,1.45,2.63,4.53,4.53,0,0,0,3,1,5.15,5.15,0,0,0,3.74-1.52l3.28,1.54a7.69,7.69,0,0,1-2.93,2.57,9.28,9.28,0,0,1-4.06.83,8,8,0,0,1-5.95-2.3,7.85,7.85,0,0,1-2.29-5.76,8.06,8.06,0,0,1,2.29-5.89A7.64,7.64,0,0,1,316.66,6a8,8,0,0,1,6,2.35,8.45,8.45,0,0,1,2.29,6.19ZM321,12.2a3.93,3.93,0,0,0-1.52-2.11,4.44,4.44,0,0,0-2.64-.81,4.64,4.64,0,0,0-2.85.91,5.14,5.14,0,0,0-1.43,2Z"/><path class="cls-1" d="M328.05,6.38h3.89V8a9.44,9.44,0,0,1,2.39-1.55,5.83,5.83,0,0,1,2.2-.44,5.32,5.32,0,0,1,3.91,1.61,5.51,5.51,0,0,1,1.36,4.05V21.88H338V15.1a16.93,16.93,0,0,0-.25-3.69,2.51,2.51,0,0,0-.87-1.39,2.47,2.47,0,0,0-1.53-.47,2.84,2.84,0,0,0-2,.79,4.21,4.21,0,0,0-1.17,2.18,17.09,17.09,0,0,0-.17,3.15v6.21h-3.89Z"/><path class="cls-1" d="M346,.67h3.89V6.38h2.31V9.73h-2.31V21.88H346V9.73h-2V6.38h2Z"/><path class="cls-1" d="M362.91.93h11.44v3.9h-7.48V8.62h7.48v3.83h-7.48V18h7.48v3.91H362.91Z"/><path class="cls-1" d="M376.25,6.38h4.51l3.07,4.23,3.05-4.23h4.44l-5.27,7.3,6,8.2h-4.52L383.8,16.8l-3.67,5.08h-4.44l5.89-8.15Z"/><path class="cls-1" d="M397.85,6.38V8.09a7.27,7.27,0,0,1,2.28-1.58A6.56,6.56,0,0,1,402.75,6a6.79,6.79,0,0,1,5.16,2.3A8.34,8.34,0,0,1,410,14.16,8.12,8.12,0,0,1,407.84,20a6.9,6.9,0,0,1-5.2,2.33,6.62,6.62,0,0,1-2.5-.47,7.65,7.65,0,0,1-2.29-1.56v7.31H394V6.38Zm4.09,3.19a4.05,4.05,0,0,0-3.05,1.26,4.5,4.5,0,0,0-1.21,3.28,4.65,4.65,0,0,0,1.21,3.34,4.21,4.21,0,0,0,6.05,0,4.66,4.66,0,0,0,1.21-3.31A4.57,4.57,0,0,0,405,10.85,4,4,0,0,0,401.94,9.57Z"/><path class="cls-1" d="M412.82.4h3.89V21.88h-3.89Z"/><path class="cls-1" d="M427.53,6a8.23,8.23,0,0,1,4.12,1.1,8.08,8.08,0,0,1,4.1,7,8.2,8.2,0,0,1-1.09,4.1,7.9,7.9,0,0,1-3,3,8.3,8.3,0,0,1-4.15,1.07,7.73,7.73,0,0,1-5.69-2.37,7.87,7.87,0,0,1-2.36-5.76,7.88,7.88,0,0,1,2.66-6.06A7.82,7.82,0,0,1,427.53,6Zm.06,3.67a4,4,0,0,0-3,1.26,4.47,4.47,0,0,0-1.2,3.22,4.53,4.53,0,0,0,1.19,3.28,4,4,0,0,0,3,1.25,4.06,4.06,0,0,0,3-1.26,4.59,4.59,0,0,0,1.21-3.27,4.51,4.51,0,0,0-1.19-3.24A4,4,0,0,0,427.59,9.65Z"/><path class="cls-1" d="M438,6.38h3.34v2a4.17,4.17,0,0,1,1.44-1.76,3.43,3.43,0,0,1,2-.6,3.69,3.69,0,0,1,1.58.4l-1.21,3.35A2.61,2.61,0,0,0,444,9.39a1.78,1.78,0,0,0-1.52,1.11,10.2,10.2,0,0,0-.62,4.36v7H438Z"/><path class="cls-1" d="M459.7,6.38h3.89v15.5H459.7V20.25a7.65,7.65,0,0,1-2.29,1.56,6.52,6.52,0,0,1-2.48.47A6.87,6.87,0,0,1,449.74,20a8.13,8.13,0,0,1-2.2-5.79,8.3,8.3,0,0,1,2.13-5.88A6.75,6.75,0,0,1,454.82,6a6.6,6.6,0,0,1,2.62.53,7.19,7.19,0,0,1,2.26,1.58Zm-4.09,3.19a4,4,0,0,0-3,1.28,4.62,4.62,0,0,0-1.19,3.27,4.7,4.7,0,0,0,1.21,3.31,4,4,0,0,0,3,1.29,4,4,0,0,0,3-1.27,4.65,4.65,0,0,0,1.21-3.34,4.5,4.5,0,0,0-1.21-3.28A4,4,0,0,0,455.61,9.57Z"/><path class="cls-1" d="M468,.67h3.89V6.38h2.31V9.73h-2.31V21.88H468V9.73h-2V6.38h2Z"/><path class="cls-1" d="M477.79,0a2.39,2.39,0,0,1,1.75.74,2.44,2.44,0,0,1,.73,1.8,2.44,2.44,0,0,1-.72,1.77,2.45,2.45,0,0,1-3.5,0,2.51,2.51,0,0,1-.74-1.82A2.4,2.4,0,0,1,476,.73,2.35,2.35,0,0,1,477.79,0Zm-2,6.38h3.89v15.5h-3.89Z"/><path class="cls-1" d="M490.55,6a8.23,8.23,0,0,1,4.12,1.1,8.08,8.08,0,0,1,4.1,7,8.2,8.2,0,0,1-1.09,4.1,7.9,7.9,0,0,1-3,3,8.3,8.3,0,0,1-4.15,1.07,7.73,7.73,0,0,1-5.69-2.37,7.87,7.87,0,0,1-2.36-5.76,7.88,7.88,0,0,1,2.66-6.06A7.82,7.82,0,0,1,490.55,6Zm.06,3.67a4,4,0,0,0-3,1.26,4.47,4.47,0,0,0-1.2,3.22,4.53,4.53,0,0,0,1.19,3.28,4,4,0,0,0,3,1.25,4.06,4.06,0,0,0,3-1.26,4.59,4.59,0,0,0,1.21-3.27,4.51,4.51,0,0,0-1.19-3.24A4,4,0,0,0,490.61,9.65Z"/><path class="cls-1" d="M501.94,6.38h3.89V8a9.48,9.48,0,0,1,2.4-1.55,5.83,5.83,0,0,1,2.2-.44,5.32,5.32,0,0,1,3.91,1.61,5.55,5.55,0,0,1,1.35,4.05V21.88h-3.84V15.1a17.62,17.62,0,0,0-.25-3.69,2.57,2.57,0,0,0-.87-1.39,2.47,2.47,0,0,0-1.53-.47,2.84,2.84,0,0,0-2,.79A4.15,4.15,0,0,0,506,12.52a18.08,18.08,0,0,0-.17,3.15v6.21h-3.89Z"/><path class="cls-1" d="M526,.93h11.58V4.86h-3.81v17h-4v-17H526Z"/><path class="cls-1" d="M547.15,6a8.24,8.24,0,0,1,4.13,1.1,8,8,0,0,1,4.09,7,8.09,8.09,0,0,1-1.09,4.1,7.76,7.76,0,0,1-3,3,8.24,8.24,0,0,1-4.14,1.07,7.72,7.72,0,0,1-5.69-2.37,7.83,7.83,0,0,1-2.36-5.76,7.85,7.85,0,0,1,2.66-6.06A7.82,7.82,0,0,1,547.15,6Zm.07,3.67a4,4,0,0,0-3,1.26A4.44,4.44,0,0,0,543,14.13a4.57,4.57,0,0,0,1.19,3.28,4,4,0,0,0,3,1.25,4,4,0,0,0,3-1.26,4.55,4.55,0,0,0,1.22-3.27,4.47,4.47,0,0,0-1.2-3.24A4,4,0,0,0,547.22,9.65Z"/><path class="cls-1" d="M565.83,6A8.24,8.24,0,0,1,570,7.08a8,8,0,0,1,4.09,7,8.09,8.09,0,0,1-1.09,4.1,7.76,7.76,0,0,1-3,3,8.24,8.24,0,0,1-4.14,1.07,7.76,7.76,0,0,1-5.7-2.37,7.86,7.86,0,0,1-2.35-5.76,7.85,7.85,0,0,1,2.66-6.06A7.82,7.82,0,0,1,565.83,6Zm.07,3.67a4,4,0,0,0-3,1.26,4.44,4.44,0,0,0-1.21,3.22,4.57,4.57,0,0,0,1.19,3.28,4,4,0,0,0,3,1.25,4,4,0,0,0,3-1.26,4.55,4.55,0,0,0,1.22-3.27,4.47,4.47,0,0,0-1.2-3.24A4,4,0,0,0,565.9,9.65Z"/><path class="cls-1" d="M576.8.4h3.89V21.88H576.8Z"/></svg>