<svg id="Layer_1" data-name="Layer 1" xmlns="http://www.w3.org/2000/svg" viewBox="0 0 1238.01 144.96"><defs><style>.cls-1{fill:#1c4589;}.cls-2{fill:#8fbae3;}.cls-3{fill:#21aedb;}.cls-4{fill:#257ec0;}.cls-5{fill:#214487;}.cls-6{fill:#948f8b;}</style></defs><polygon class="cls-1" points="159.59 60.26 155.13 64.73 155.13 71.49 159.59 75.96 166.36 75.96 170.82 71.49 170.82 64.73 166.36 60.26 159.59 60.26"/><path class="cls-2" d="M166.36,60.26h-2.82a8.42,8.42,0,0,0,7.28,6.57v-2.1Z"/><polygon class="cls-1" points="159.77 77.43 156.28 85.55 169.66 85.55 166.18 77.43 159.77 77.43"/><polygon class="cls-1" points="171.03 85 179.86 76.17 171.73 72.67 167.53 76.86 171.03 85"/><polygon class="cls-1" points="180.41 74.8 180.41 61.42 172.29 64.91 172.29 71.31 180.41 74.8"/><path class="cls-2" d="M179.5,61.81l-7.21,3.1v2A8.41,8.41,0,0,0,179.5,61.81Z"/><polygon class="cls-2" points="171.73 63.55 179.86 60.06 171.03 51.23 167.53 59.36 171.73 63.55"/><polygon class="cls-1" points="146.09 76.17 154.92 85 158.41 76.86 154.22 72.67 146.09 76.17"/><polygon class="cls-1" points="153.65 71.31 153.65 64.91 145.54 61.42 145.54 74.8 153.65 71.31"/><polygon class="cls-1" points="146.09 60.06 154.22 63.55 158.41 59.36 154.92 51.23 146.09 60.06"/><polygon class="cls-1" points="166.18 58.79 169.66 50.67 156.28 50.67 159.77 58.79 166.18 58.79"/><path class="cls-2" d="M168.58,50.68a8.41,8.41,0,0,0-5.23,7.79c0,.11,0,.21,0,.32h2.82l3.48-8.11Z"/><path class="cls-3" d="M139.79,65.21a23.39,23.39,0,0,1,20.29-20.28V39.09A29.22,29.22,0,0,0,134,65.21Z"/><path class="cls-3" d="M165.87,44.93a23.41,23.41,0,0,1,20.29,20.28H192a29.22,29.22,0,0,0-26.13-26.12Z"/><path class="cls-3" d="M160.08,91.29A23.39,23.39,0,0,1,139.79,71H134a29.22,29.22,0,0,0,26.13,26.12Z"/><path class="cls-3" d="M186.16,71a23.41,23.41,0,0,1-20.29,20.28v5.84A29.22,29.22,0,0,0,192,71Z"/><path class="cls-4" d="M193.3,41.89,189.19,46a34.22,34.22,0,0,1,0,44.24l4.11,4.1a40,40,0,0,0,0-52.44Z"/><path class="cls-4" d="M140.86,41.89a34.24,34.24,0,0,1,44.23,0l4.11-4.1a40,40,0,0,0-52.45,0Z"/><path class="cls-4" d="M185.09,94.33a34.24,34.24,0,0,1-44.23,0l-4.11,4.1a40,40,0,0,0,52.45,0Z"/><path class="cls-4" d="M136.76,90.23a34.22,34.22,0,0,1,0-44.24l-4.11-4.1a40,40,0,0,0,0,52.44Z"/><path class="cls-5" d="M165.87,23.54a44.72,44.72,0,0,1,41.68,41.67h5.81a50.54,50.54,0,0,0-47.49-47.49Z"/><path class="cls-5" d="M118.4,65.21a44.72,44.72,0,0,1,41.68-41.67V17.72a50.54,50.54,0,0,0-47.49,47.49Z"/><path class="cls-5" d="M160.08,112.69A44.74,44.74,0,0,1,118.4,71h-5.81a50.54,50.54,0,0,0,47.49,47.49Z"/><path class="cls-5" d="M207.55,71a44.74,44.74,0,0,1-41.68,41.68v5.81A50.54,50.54,0,0,0,213.36,71Z"/><path class="cls-5" d="M262.3,128.9,219.67,97.75a4.61,4.61,0,0,0-6.44,1l-.11.15-3.57-2.62a54.08,54.08,0,0,1-5.43,7.46l3.57,2.6-.11.15a4.62,4.62,0,0,0,1,6.44l42.64,31.14a4.6,4.6,0,0,0,6.43-1l5.65-7.73A4.6,4.6,0,0,0,262.3,128.9Z"/><path class="cls-6" d="M306.81,45.74a6.4,6.4,0,0,0-5.84,3.8h-7.65L279,35.19a3,3,0,0,0-2.09-.86h-8.71L254.33,20.47a3,3,0,0,0-2.1-.87h-9.54L227.39,4.31a3,3,0,0,0-2.09-.86H135.46a6.41,6.41,0,1,0,0,5.92h88.61L234.31,19.6h-18a6.42,6.42,0,1,0,0,5.93H251l8.8,8.8H232.27a6.41,6.41,0,1,0,0,5.92h43.39L290,54.6a3,3,0,0,0,2.1.86h9.25a6.4,6.4,0,1,0,5.46-9.72Z"/><path class="cls-6" d="M267,45.74a6.4,6.4,0,0,0-5.84,3.8H243.88a6.43,6.43,0,1,0-.38,5.92h18A6.4,6.4,0,1,0,267,45.74Z"/><path class="cls-6" d="M320.82,61.7a6.37,6.37,0,0,0-5.65,3.45H257.88a6.41,6.41,0,1,0,0,5.92h41.78L289.23,81.51H239.74a6.41,6.41,0,1,0,0,5.92h36.58l-8.25,8.25h-16.6a6.41,6.41,0,1,0,0,5.92H269.3a3,3,0,0,0,2.09-.86L284.7,87.43h5.75a3,3,0,0,0,2.1-.87L308,71.07h7.13a6.4,6.4,0,1,0,5.65-9.37Z"/><path class="cls-6" d="M103.81,30.88a6.37,6.37,0,0,0-5.65,3.45H85.07a6.41,6.41,0,1,0,0,5.92H98.16a6.39,6.39,0,1,0,5.65-9.37Z"/><path class="cls-6" d="M118.83,15.8a6.37,6.37,0,0,0-5.65,3.45H72.68a3,3,0,0,0-2.09.86L41.4,49.3h-7a2.94,2.94,0,0,0-2.09.87L17.21,65.24h-5.1a6.41,6.41,0,1,0-.1,5.93H69.82a6.41,6.41,0,1,0-.1-5.93H25.59l10-10H85a6.4,6.4,0,1,0,0-5.92H49.78L73.91,25.17h39.27a6.4,6.4,0,1,0,5.65-9.37Z"/><path class="cls-6" d="M89.8,76a6.38,6.38,0,0,0-5.65,3.44H64.49a6.41,6.41,0,1,0,0,5.93H84.15A6.4,6.4,0,1,0,89.8,76Z"/><path class="cls-6" d="M200.76,121.28a6.38,6.38,0,0,0-5.65,3.44H105.25L97,116.43h15.21a6.41,6.41,0,1,0,0-5.93H78.29l-9.23-9.23H95.68a6.41,6.41,0,1,0,0-5.92h-43l-15-15a3,3,0,0,0-2.09-.87H26.39a6.41,6.41,0,1,0,0,5.93h8l15,15a2.94,2.94,0,0,0,2.09.87h9.22L75,115.56a3,3,0,0,0,2.1.87h11.5l13.36,13.35a3,3,0,0,0,2.09.87h91.09a6.4,6.4,0,1,0,5.65-9.37Z"/><path class="cls-5" d="M381.72,73.51c5,5,64.13,44.17,64.13,44.17V141S386,99.93,380.64,95.7c-8.65-6.8-8.65-14-8.65-14V58.38S376,67.75,381.72,73.51Z"/><polygon class="cls-5" points="468.38 105.79 445.85 117.68 445.85 140.95 468.38 129.06 468.38 105.79"/><polygon class="cls-5" points="599.77 107.86 575.08 120.83 575.08 144.11 599.77 131.14 599.77 107.86"/><polygon class="cls-5" points="684.7 64.04 660.02 77.01 660.02 100.29 684.7 87.32 684.7 64.04"/><polygon class="cls-5" points="1238.01 103.62 1216.56 114.43 1216.56 137.7 1238.01 126.9 1238.01 103.62"/><polygon class="cls-5" points="1105.02 77.57 1087.16 64.78 1087.16 88.05 1105.02 100.85 1105.02 77.57"/><polygon class="cls-5" points="1137.28 61.31 1105.02 77.57 1105.02 100.85 1137.28 84.59 1137.28 61.31"/><polygon class="cls-5" points="1194.14 32.42 1160.07 50.62 1178.72 63.71 1194.14 55.69 1194.14 32.42"/><polygon class="cls-5" points="1216.56 114.43 1137.28 61.31 1137.28 84.59 1216.56 137.7 1216.56 114.43"/><path class="cls-5" d="M1021.13,63.06,991,79.27,964.53,93.55a32.74,32.74,0,0,0,12.26,6.23A103.79,103.79,0,0,0,991,102.54c5-2.15,30.09-16.21,30.09-16.21Z"/><path class="cls-5" d="M793.49,35.2s-20,10-29.73,15S749.21,59.07,747.53,64c-.73,2.19-.93,10.7,5.79,15,4.85-3.55,7.68-4.21,10.44-5.6l29.73-15Z"/><path class="cls-5" d="M982,37.09s-20,10-29.72,14.95S937.7,61,936,65.93c-.74,2.19.15,10.69,6.86,15a49.29,49.29,0,0,1,9.37-5.59l29.72-15Z"/><path class="cls-5" d="M870.78,89.74S834.1,108,829.89,109.84s-14.22,6.22-17.7,7.1-16.81,1.76-20.13,1.44-16.28-1.49-20.14-2.42-13.75-5.35-17.86-7.61-12.44-8.7-16-11.23-13.06-9-15.11-12c-1.78-2.67-6.71-14.55-6.71-14.55V93.8s4,11.87,6.71,14.55S736,120.21,738,121.48s12.89,8.8,16,10.15,14.79,7.23,17.86,7.6,15.79,2.43,20.14,2.43,16.41.05,20.13-1.44,14.86-5.71,17.7-7.11L870.78,113Z"/><path class="cls-5" d="M1060.35,90.82s-36.68,18.29-40.89,20.1-14.22,6.22-17.7,7.1-16.81,1.76-20.14,1.44S965.35,118,961.49,117s-13.76-5.34-17.86-7.61-11.36-6.53-15-9.07-14.14-11.11-16.19-14.2c-1.78-2.67-5.64-14.55-5.64-14.55V94.88s3,11.87,5.64,14.55,14.18,14,16.19,15.29,11.81,6.64,15,8,14.79,7.23,17.86,7.6,15.78,2.43,20.13,2.43,16.42,0,20.14-1.44,14.86-5.71,17.7-7.11l40.89-20.09Z"/><polygon class="cls-5" points="628.55 67.45 599.06 82.17 588.93 87.22 599.06 105.44 628.55 90.73 628.55 67.45"/><polygon class="cls-5" points="660.02 77.01 628.55 67.45 628.55 90.73 660.02 100.29 660.02 77.01"/><polygon class="cls-5" points="575.08 120.83 522.63 33.49 522.63 56.76 575.08 144.11 575.08 120.83"/><polygon class="cls-5" points="490.9 48.99 448.66 70.36 430.4 79.59 448.66 93.63 490.9 72.27 490.9 48.99"/><path class="cls-5" d="M452.47,22.65s-35.31,17.78-42.4,21.68-8.73,7.76-8.73,11.44,3.25,8,8.73,11.83l42.4-21.68Z"/><path class="cls-5" d="M558.76,42.93S574,68.32,575.08,70.33s4.61,2,6.5,1,21-10.77,22.66-11.57.48-2.25-1.61-3.13S558.76,42.93,558.76,42.93Z"/></svg>